<svg width="255" height="160" viewBox="0 0 255 160" fill="none" xmlns="http://www.w3.org/2000/svg">
<g id="002-gamepad">
<rect id="Mask" width="255" height="160" rx="15" fill="#FF8B64"/>
<mask id="mask0_0_418" style="mask-type:luminance" maskUnits="userSpaceOnUse" x="0" y="0" width="255" height="160">
<rect id="Mask_2" width="255" height="160" rx="15" fill="white"/>
</mask>
<g mask="url(#mask0_0_418)">
<path id="Combined Shape" fill-rule="evenodd" clip-rule="evenodd" d="M230.499 45.7176L235.227 40.9897C238.365 37.8516 238.365 32.7727 235.227 29.6345L224.388 18.7955L226.452 16.7309C228.73 14.4536 228.73 10.7498 226.452 8.47254L218.194 0.2142C215.917 -2.06304 212.213 -2.06304 209.936 0.2142L207.871 2.27879L197.032 -8.56028C193.894 -11.6985 188.815 -11.6985 185.677 -8.56028L180.949 -3.83239L197.135 28.5403C197.239 28.7674 197.383 28.9532 197.548 29.1184C197.713 29.2835 197.899 29.4281 198.126 29.5313L230.499 45.7176ZM212 6.40795L220.259 14.6663L222.323 12.6017L214.065 4.34337L212 6.40795ZM196.165 33.4334C195.649 33.2063 195.009 32.7727 194.451 32.2153C193.894 31.6578 193.46 31.0178 193.151 30.3365L177.687 -0.570342L161.934 15.1824C158.796 18.3206 158.796 23.3995 161.934 26.5377L200.129 64.7325C203.267 67.8706 208.346 67.8706 211.484 64.7325L227.237 48.9797L196.165 33.4334Z" fill="#D96C47"/>
</g>
</g>
</svg>
