<svg width="255" height="160" viewBox="0 0 255 160" fill="none" xmlns="http://www.w3.org/2000/svg">
<g id="002-gamepad">
<rect id="Mask" width="255" height="160" rx="15" fill="#4BCF82"/>
<mask id="mask0_0_474" style="mask-type:luminance" maskUnits="userSpaceOnUse" x="0" y="0" width="255" height="160">
<rect id="Mask_2" width="255" height="160" rx="15" fill="white"/>
</mask>
<g mask="url(#mask0_0_474)">
<path id="Combined Shape" fill-rule="evenodd" clip-rule="evenodd" d="M234.571 31.7925L234.571 32.0521C234.571 33.2166 234.117 34.3118 233.294 35.1354C232.472 35.9581 231.375 36.4124 230.211 36.4124L214.44 36.4114C212.094 36.4124 210.048 34.3667 210.048 32.0192L210.047 23.6142L197.997 23.6049L198.007 38.7742C198.008 39.201 197.797 39.6006 197.446 39.8418L179.349 52.2515C177.986 53.1008 176.391 53.2845 174.923 52.7891C174.163 52.5323 173.484 52.1072 172.929 51.5524C172.414 51.0368 172.005 50.4089 171.736 49.7013C170.861 47.4088 171.81 44.768 173.992 43.4252L186.295 34.4516L186.547 23.1717L172.991 23.6142C172.632 23.6261 172.286 23.4889 172.034 23.2366L159.237 10.4393C158.238 9.44019 157.687 8.05894 157.724 6.64673C157.761 5.21433 158.37 3.89625 159.438 2.93645C161.48 1.09731 164.672 1.24901 166.705 3.282L175.281 11.858L204.725 10.2225L202.592 8.08991L190.329 8.43732C189.118 8.49127 187.91 8.02415 187.035 7.15755L187.019 7.14201C186.141 6.2636 185.681 5.08904 185.725 3.83485C185.806 1.48831 187.885 -0.420318 190.357 -0.421249L206.804 0.00475323C207.135 0.0138656 207.449 0.149103 207.684 0.384057L217.637 10.3377C218.523 11.2234 219.039 12.399 219.088 13.6495L219.602 26.5181C219.623 27.0218 220.035 27.4138 220.539 27.413L230.134 27.3628C232.586 27.3638 234.571 29.3537 234.571 31.7925ZM235.106 22.3221C232.082 25.3469 227.162 25.3469 224.137 22.3221C221.113 19.2974 221.113 14.3777 224.137 11.3529C227.162 8.32807 232.082 8.32817 235.106 11.3529C238.131 14.3776 238.131 19.2973 235.106 22.3221Z" fill="#29BA66"/>
</g>
</g>
</svg>
