<svg width="255" height="160" viewBox="0 0 255 160" fill="none" xmlns="http://www.w3.org/2000/svg">
<g id="003-open-book">
<rect id="Mask" width="255" height="160" rx="15" fill="#F1C75B"/>
<mask id="mask0_0_514" style="mask-type:luminance" maskUnits="userSpaceOnUse" x="0" y="0" width="255" height="160">
<rect id="Mask_2" width="255" height="160" rx="15" fill="white"/>
</mask>
<g mask="url(#mask0_0_514)">
<path id="XMLID_482_" fill-rule="evenodd" clip-rule="evenodd" d="M173.937 40.1385L173.918 39.8483L173.918 39.8479C172.585 19.6965 171.705 6.38365 181.875 -3.78645C190.288 -12.1999 203.484 -12.1851 211.917 -3.75245C215.707 0.037586 218.028 5.20597 218.443 10.5583C223.794 10.9732 228.963 13.294 232.753 17.0839C241.185 25.516 241.2 38.7118 232.786 47.1254C228.136 51.7758 221.774 54.3481 212.766 55.2209C205.054 55.9683 195.903 55.4918 183.817 54.7367L183.779 54.7342L177.741 54.2867C176.932 54.2266 176.205 53.8745 175.666 53.3352C175.127 52.7959 174.775 52.0694 174.715 51.2602L174.267 45.2217C174.266 45.2104 174.265 45.1989 174.264 45.1877L174.264 45.1838C174.156 43.4513 174.045 41.7703 173.937 40.1385ZM200.532 22.2947L194.36 16.1225L188.201 22.2811L194.374 28.4534L188.215 34.6118L194.388 40.7844L200.546 34.6259L206.719 40.7984L212.877 34.6398L206.705 28.4673L212.864 22.3086L206.691 16.136L200.532 22.2947Z" fill="#E6A532"/>
</g>
</g>
</svg>
