<svg width="255" height="160" viewBox="0 0 255 160" fill="none" xmlns="http://www.w3.org/2000/svg">
<g id="003-open-book">
<rect id="Mask" width="255" height="160" rx="15" fill="#FF5E7D"/>
<mask id="mask0_0_456" style="mask-type:luminance" maskUnits="userSpaceOnUse" x="0" y="0" width="255" height="160">
<rect id="Mask_2" width="255" height="160" rx="15" fill="white"/>
</mask>
<g mask="url(#mask0_0_456)">
<path id="Combined Shape" fill-rule="evenodd" clip-rule="evenodd" d="M236.058 35.6805L237.381 37.0034C238.113 37.7346 238.113 38.918 237.381 39.6492L205.632 71.3982C204.901 72.1294 203.718 72.1294 202.987 71.3982L188.121 56.5323C186.034 57.5257 183.457 57.1602 181.732 55.4355L176.441 50.144C174.716 48.4193 174.351 45.842 175.344 43.7556L160.478 28.8898C159.747 28.1586 159.747 26.9752 160.478 26.244L192.227 -5.50501C192.958 -6.23621 194.142 -6.23621 194.873 -5.50501L196.196 -4.18213L168.415 23.5983C166.227 25.7867 166.315 29.4353 168.504 31.6237L180.636 43.7556C179.642 45.8421 180.008 48.4193 181.732 50.144C183.457 51.8687 186.034 52.2343 188.121 51.2408L200.253 63.3727C202.441 65.5611 206.09 65.6493 208.278 63.4609L236.058 35.6805ZM217.014 12.2166L186.67 42.5604C187.019 41.0333 187.851 35.0971 181.732 28.978C181.001 28.2468 181.001 27.0634 181.732 26.3322L208.19 -0.125311C208.921 -0.856508 210.104 -0.856508 210.836 -0.125311C215.325 4.36365 216.713 8.85534 217.014 12.2166ZM189.67 47.4982L202.898 60.727C203.63 61.4582 204.813 61.4582 205.544 60.727L234.647 31.6237C235.379 30.8925 235.379 29.7092 234.647 28.978L224.064 18.395C222.57 16.9003 220.687 16.0525 218.739 15.783L187.024 47.4982C187.754 46.7684 188.94 46.7684 189.67 47.4982ZM200.253 -2.77106C200.984 -3.50226 202.167 -3.50226 202.898 -2.77106L204.221 -1.44819L179.087 23.6865C176.898 25.8749 176.898 29.4353 179.087 31.6237C183.092 35.629 183.287 39.3197 183.13 40.9586L171.149 28.978C170.418 28.2468 170.418 27.0634 171.149 26.3322L200.253 -2.77106Z" fill="#F04667"/>
</g>
</g>
</svg>
