<svg width="255" height="160" viewBox="0 0 255 160" fill="none" xmlns="http://www.w3.org/2000/svg">
<g id="Shape">
<rect id="Mask" width="255" height="160" rx="15" fill="#7335D2"/>
<mask id="mask0_0_490" style="mask-type:luminance" maskUnits="userSpaceOnUse" x="0" y="0" width="255" height="160">
<rect id="Mask_2" width="255" height="160" rx="15" fill="white"/>
</mask>
<g mask="url(#mask0_0_490)">
<g id="Group 14">
<path id="Shape_2" fill-rule="evenodd" clip-rule="evenodd" d="M232.095 31.2242C225.938 37.3814 217.619 36.4078 212.838 31.6266L202.338 21.1275L188.864 21.9049C186.962 22.0161 185.941 19.711 187.279 18.3724L193.545 12.1071C189.745 6.89567 190.196 -0.469298 194.896 -5.16995C201.025 -11.2987 209.34 -10.3863 214.154 -5.57233L232.095 12.3689C237.293 17.5666 237.294 26.0255 232.095 31.2242ZM224.243 23.7743C225.245 22.7722 225.245 21.1471 224.242 20.144C223.24 19.142 221.615 19.142 220.613 20.144C219.611 21.1461 219.611 22.7712 220.613 23.7733C221.616 24.7763 223.241 24.7763 224.243 23.7743ZM202.749 5.90925C201.747 4.9072 201.747 3.28204 202.749 2.27999C203.751 1.27794 205.376 1.27794 206.378 2.27999C207.381 3.28302 207.381 4.90818 206.379 5.91023C205.377 6.91228 203.752 6.91228 202.749 5.90925ZM215.31 14.8418C216.312 13.8397 216.312 12.2145 215.31 11.2125C214.308 10.2104 212.683 10.2104 211.681 11.2125C210.679 12.2145 210.679 13.8397 211.681 14.8418C212.683 15.8438 214.308 15.8438 215.31 14.8418Z" fill="#5A1CBB"/>
<path id="Shape_3" fill-rule="evenodd" clip-rule="evenodd" d="M204.222 30.7564L222.164 48.6976C227.035 53.5686 227.82 61.8961 221.761 67.9553C217.061 72.6559 209.696 73.1062 204.484 69.307L198.219 75.5722C196.872 76.9193 194.575 75.8739 194.685 73.9881L195.463 60.5141L184.964 50.0151C180.105 45.1562 179.294 36.8295 185.366 30.7574C190.565 25.5586 199.025 25.5586 204.222 30.7564ZM192.817 38.6086C191.814 39.6116 191.814 41.2368 192.817 42.2398C193.819 43.2419 195.444 43.2419 196.447 42.2388C197.449 41.2368 197.449 39.6116 196.447 38.6096C195.444 37.6065 193.819 37.6065 192.817 38.6086ZM201.749 51.1713C200.747 50.1693 200.747 48.5441 201.75 47.5411C202.752 46.5391 204.377 46.5391 205.379 47.5411C206.381 48.5432 206.381 50.1683 205.379 51.1704C204.376 52.1734 202.751 52.1734 201.749 51.1713ZM210.681 56.4726C209.678 57.4757 209.678 59.1008 210.681 60.1038C211.683 61.1059 213.308 61.1059 214.311 60.1029C215.313 59.1008 215.313 57.4757 214.311 56.4736C213.308 55.4706 211.683 55.4706 210.681 56.4726Z" fill="#5A1CBB"/>
</g>
</g>
</g>
</svg>
