<svg width="255" height="160" viewBox="0 0 255 160" fill="none" xmlns="http://www.w3.org/2000/svg">
<g id="Shape">
<rect id="Mask" width="255" height="160" rx="15" fill="#55C2E6"/>
<mask id="mask0_0_435" style="mask-type:luminance" maskUnits="userSpaceOnUse" x="0" y="0" width="255" height="160">
<rect id="Mask_2" width="255" height="160" rx="15" fill="white"/>
</mask>
<g mask="url(#mask0_0_435)">
<g id="Shape 2">
<path id="Shape_2" fill-rule="evenodd" clip-rule="evenodd" d="M231.224 46.9535L218.91 66.8464C215.564 72.2515 208.051 73.1172 203.561 68.6277C201.648 66.7148 200.869 63.8997 201.524 61.279L203.469 53.4969C203.803 52.1655 203.407 50.7352 202.436 49.7648L179.834 27.1629C178.864 26.1924 177.435 25.7965 176.103 26.1299L168.32 28.0751C165.7 28.7307 162.885 27.9513 160.974 26.0406C156.478 21.5442 157.353 14.0325 162.753 10.6899L182.646 -1.62402C189.968 -6.15708 198.097 -3.77065 202.554 0.686075L228.914 27.0464C235.003 33.1356 234.541 41.5949 231.224 46.9535ZM192.792 18.8343L194.683 20.726C195.598 21.6404 197.081 21.6404 197.995 20.726C198.91 19.8112 198.91 18.3284 197.995 17.414L196.104 15.5223L197.995 13.6305C198.91 12.7162 198.91 11.2333 197.995 10.3185C197.081 9.40413 195.598 9.40414 194.683 10.3185L192.792 12.2102L190.9 10.3185C189.986 9.40414 188.503 9.40413 187.588 10.3189C186.674 11.2333 186.674 12.7162 187.588 13.6305L189.48 15.5223L187.588 17.414C186.674 18.3284 186.674 19.8112 187.588 20.7256C188.503 21.6404 189.986 21.6404 190.9 20.726L192.792 18.8343ZM208.874 34.9161C207.96 34.0022 207.96 32.5184 208.874 31.6045C209.788 30.6901 211.272 30.6906 212.186 31.6041C213.1 32.5184 213.1 34.0021 212.186 34.9165C211.272 35.8305 209.788 35.8305 208.874 34.9161ZM208.874 38.6995C207.96 39.6135 207.96 41.0976 208.874 42.0116C209.788 42.9255 211.272 42.9255 212.186 42.0116C213.099 41.0976 213.1 39.6135 212.186 38.6995C211.272 37.7856 209.787 37.7856 208.874 38.6995ZM215.969 34.9165C215.055 34.0026 215.055 32.5184 215.969 31.6041C216.883 30.6901 218.367 30.6906 219.281 31.6045C220.195 32.5184 220.195 34.0021 219.281 34.9161C218.367 35.8305 216.883 35.8305 215.969 34.9165ZM215.969 38.6995C215.055 39.6135 215.055 41.0976 215.969 42.0116C216.883 42.9255 218.367 42.9255 219.281 42.0116C220.195 41.0972 220.195 39.6135 219.281 38.6995C218.367 37.7856 216.883 37.7852 215.969 38.6995Z" fill="#3F9CBB"/>
</g>
</g>
</g>
</svg>
